<mxfile host="app.diagrams.net" modified="2021-09-03T15:17:18.340Z" agent="5.0 (Macintosh; Intel Mac OS X 10_15_7) AppleWebKit/537.36 (KHTML, like Gecko) Chrome/92.0.4515.159 Safari/537.36" etag="zPoMFOPFdsp_WlTzYgWz" version="14.9.8" type="github">
  <diagram id="ecOq7PFy2zb6hEe4VdWq" name="Page-1">
    <mxGraphModel dx="2514" dy="1324" grid="1" gridSize="10" guides="1" tooltips="1" connect="1" arrows="1" fold="1" page="1" pageScale="1" pageWidth="827" pageHeight="1169" background="#DAD2D8" math="0" shadow="0">
      <root>
        <mxCell id="0" />
        <mxCell id="1" parent="0" />
        <mxCell id="BEu0zM0ldIujXqOTG5YO-2" style="edgeStyle=orthogonalEdgeStyle;rounded=0;orthogonalLoop=1;jettySize=auto;html=1;exitX=0.5;exitY=1;exitDx=0;exitDy=0;labelBackgroundColor=#DAD2D8;strokeColor=#A8201A;fontColor=#143642;fontSize=14;fontFamily=腾讯体;" edge="1" parent="1" source="BEu0zM0ldIujXqOTG5YO-1">
          <mxGeometry relative="1" as="geometry">
            <mxPoint x="380" y="290" as="targetPoint" />
          </mxGeometry>
        </mxCell>
        <mxCell id="BEu0zM0ldIujXqOTG5YO-1" value="复现问题" style="rounded=0;whiteSpace=wrap;html=1;fillColor=#FAE5C7;strokeColor=#0F8B8D;fontColor=#143642;fontSize=14;fontFamily=腾讯体;" vertex="1" parent="1">
          <mxGeometry x="320" y="160" width="120" height="60" as="geometry" />
        </mxCell>
        <mxCell id="BEu0zM0ldIujXqOTG5YO-5" style="edgeStyle=orthogonalEdgeStyle;rounded=0;orthogonalLoop=1;jettySize=auto;html=1;exitX=0.5;exitY=1;exitDx=0;exitDy=0;entryX=0.5;entryY=0;entryDx=0;entryDy=0;labelBackgroundColor=#DAD2D8;strokeColor=#A8201A;fontColor=#143642;fontSize=14;fontFamily=腾讯体;" edge="1" parent="1" source="BEu0zM0ldIujXqOTG5YO-3">
          <mxGeometry relative="1" as="geometry">
            <mxPoint x="380" y="420" as="targetPoint" />
          </mxGeometry>
        </mxCell>
        <mxCell id="BEu0zM0ldIujXqOTG5YO-3" value="分析问题" style="rounded=0;whiteSpace=wrap;html=1;fillColor=#FAE5C7;strokeColor=#0F8B8D;fontColor=#143642;fontSize=14;fontFamily=腾讯体;" vertex="1" parent="1">
          <mxGeometry x="320" y="290" width="120" height="60" as="geometry" />
        </mxCell>
        <mxCell id="BEu0zM0ldIujXqOTG5YO-10" style="edgeStyle=orthogonalEdgeStyle;rounded=0;orthogonalLoop=1;jettySize=auto;html=1;exitX=0.5;exitY=1;exitDx=0;exitDy=0;entryX=0.5;entryY=0;entryDx=0;entryDy=0;entryPerimeter=0;labelBackgroundColor=#DAD2D8;strokeColor=#A8201A;fontColor=#143642;fontSize=14;fontFamily=腾讯体;" edge="1" parent="1" source="BEu0zM0ldIujXqOTG5YO-6" target="BEu0zM0ldIujXqOTG5YO-9">
          <mxGeometry relative="1" as="geometry" />
        </mxCell>
        <mxCell id="BEu0zM0ldIujXqOTG5YO-12" style="edgeStyle=orthogonalEdgeStyle;rounded=0;orthogonalLoop=1;jettySize=auto;html=1;exitX=0;exitY=0.5;exitDx=0;exitDy=0;entryX=0.5;entryY=1;entryDx=0;entryDy=0;labelBackgroundColor=#DAD2D8;strokeColor=#A8201A;fontColor=#143642;fontSize=14;fontFamily=腾讯体;" edge="1" parent="1" source="BEu0zM0ldIujXqOTG5YO-6" target="BEu0zM0ldIujXqOTG5YO-11">
          <mxGeometry relative="1" as="geometry" />
        </mxCell>
        <mxCell id="BEu0zM0ldIujXqOTG5YO-6" value="尝试解决" style="rhombus;whiteSpace=wrap;html=1;fillColor=#FAE5C7;strokeColor=#0F8B8D;fontColor=#143642;fontSize=14;fontFamily=腾讯体;" vertex="1" parent="1">
          <mxGeometry x="315" y="420" width="130" height="80" as="geometry" />
        </mxCell>
        <mxCell id="BEu0zM0ldIujXqOTG5YO-9" value="" style="verticalLabelPosition=bottom;verticalAlign=top;html=1;shape=mxgraph.flowchart.or;fillColor=#FAE5C7;strokeColor=#0F8B8D;fontColor=#143642;fontSize=14;fontFamily=腾讯体;" vertex="1" parent="1">
          <mxGeometry x="345" y="570" width="70" height="70" as="geometry" />
        </mxCell>
        <mxCell id="BEu0zM0ldIujXqOTG5YO-13" style="edgeStyle=orthogonalEdgeStyle;rounded=0;orthogonalLoop=1;jettySize=auto;html=1;exitX=1;exitY=0.5;exitDx=0;exitDy=0;entryX=0;entryY=0.5;entryDx=0;entryDy=0;labelBackgroundColor=#DAD2D8;strokeColor=#A8201A;fontColor=#143642;fontSize=14;fontFamily=腾讯体;" edge="1" parent="1" source="BEu0zM0ldIujXqOTG5YO-11" target="BEu0zM0ldIujXqOTG5YO-3">
          <mxGeometry relative="1" as="geometry" />
        </mxCell>
        <mxCell id="BEu0zM0ldIujXqOTG5YO-11" value="排除错误原因" style="rounded=0;whiteSpace=wrap;html=1;fillColor=#FAE5C7;strokeColor=#0F8B8D;fontColor=#143642;fontSize=14;fontFamily=腾讯体;" vertex="1" parent="1">
          <mxGeometry x="120" y="290" width="120" height="60" as="geometry" />
        </mxCell>
      </root>
    </mxGraphModel>
  </diagram>
</mxfile>
